<?xml version="1.0" encoding="UTF-8" standalone="no"?>
<svg
   id="Layer_1"
   version="1.1"
   viewBox="0 0 128 128"
   sodipodi:docname="iconc.svg"
   inkscape:version="1.4 (86a8ad7, 2024-10-11)"
   xmlns:inkscape="http://www.inkscape.org/namespaces/inkscape"
   xmlns:sodipodi="http://sodipodi.sourceforge.net/DTD/sodipodi-0.dtd"
   xmlns="http://www.w3.org/2000/svg"
   xmlns:svg="http://www.w3.org/2000/svg">
  <sodipodi:namedview
     id="namedview18"
     pagecolor="#505050"
     bordercolor="#eeeeee"
     borderopacity="1"
     inkscape:showpageshadow="0"
     inkscape:pageopacity="0"
     inkscape:pagecheckerboard="0"
     inkscape:deskcolor="#505050"
     inkscape:zoom="5.6568543"
     inkscape:cx="54.447222"
     inkscape:cy="59.662134"
     inkscape:window-width="2560"
     inkscape:window-height="1361"
     inkscape:window-x="-9"
     inkscape:window-y="-9"
     inkscape:window-maximized="1"
     inkscape:current-layer="Layer_1" />
  <defs
     id="defs1">
    <style
       id="style1">
      .st0 {
        fill: none;
        stroke: #e6db74;
        stroke-miterlimit: 10;
        stroke-width: 8px;
      }

      .st1 {
        fill: #263238;
      }

      .st2 {
        fill: #9dff00;
      }

      .st3 {
        fill-rule: evenodd;
      }

      .st3, .st4 {
        fill: #e6db74;
      }

      .st5 {
        fill: #c1272d;
      }

      .st6 {
        display: none;
      }
    </style>
  </defs>
  <g
     id="g1">
    <rect
       class="st1"
       x="4.8"
       y="4.7"
       width="118.4"
       height="118.4"
       rx="27.2"
       ry="27.2"
       id="rect1" />
    <path
       class="st2"
       d="M96,9.5c12.4,0,22.4,10,22.4,22.4v64c0,12.4-10,22.4-22.4,22.4H32c-12.4,0-22.4-10-22.4-22.4V31.9c0-12.4,10-22.4,22.4-22.4h64M96-.1H32C14.3-.1,0,14.2,0,31.9v64C0,113.5,14.3,127.9,32,127.9h64c17.7,0,32-14.3,32-32V31.9C128,14.2,113.7-.1,96-.1h0Z"
       id="path1" />
  </g>
  <g
     class="st6"
     id="g4">
    <g
       id="o1"
       class="st6">
      <path
         class="st2"
         d="M89.8,45.1c-.5,1-4.1,2.7-5.1,3.3-1.5.9-3.8,2-4.2,3.9-.7,5.9.7,13.1,0,18.8-.4,2.9-3.9,4.1-6.2,2.5-3.4-2.3-.3-7.8-2.5-10.8-1.9-2.5-5.9-2.2-7.4.4-1.6,2.7-.2,12.3-.7,16-.3,2.5-3,2.2-3.8,4.3-.8,2.3.8,6.3-1.4,7.8-1.9,1.3-4.4,0-4.7-2.2-.4-3.2.7-13.1-.4-15.3-1.5-2.9-6-2.8-7.6,0-.7,1.2-.3,2.7-.8,3.5-.6.9-2.1.9-2.5,0s-.3-.8-.3-5.7V16.1l46.3,26.7,1.7,1h0c0,.8,0,.8-.2,1.2Z"
         id="path3" />
    </g>
    <g
       id="o2"
       class="st6">
      <path
         class="st2"
         d="M89.8,45.1c-.5,1-4.1,2.7-5.1,3.3-1.5.9-3.8,2-4.2,3.9-.7,5.9.7,13.1,0,18.8-.4,2.9-3.9,4.1-6.2,2.5-3.4-2.3-.3-7.8-2.5-10.8-1.9-2.5-5.9-2.2-7.4.4-1.6,2.7-.2,12.3-.7,16-.3,2.5-3,2.2-3.8,4.3-.8,2.3.8,6.3-1.4,7.8-1.9,1.3-4.4,0-4.7-2.2-.4-3.2.7-13.1-.4-15.3-1.5-2.9-6-2.8-7.6,0-.7,1.2-.3,2.7-.8,3.5-.6.9-2.1.9-2.5,0s-.3-.8-.3-5.7V16.1l46.3,26.7,1.7,1h0c0,.8,0,.8-.2,1.2Z"
         id="path4" />
    </g>
  </g>
  <g
     id="g11">
    <g
       id="g6">
      <path
         class="st3"
         d="M20.8,90.5c-2.9,0-5.2-2.3-5.2-5.2s2.3-5.2,5.2-5.2,5.2,2.3,5.2,5.2-2.3,5.2-5.2,5.2Z"
         id="path5" />
      <path
         class="st4"
         d="M20.8,82.1c1.8,0,3.2,1.4,3.2,3.2s-1.4,3.2-3.2,3.2-3.2-1.4-3.2-3.2,1.4-3.2,3.2-3.2M20.8,78.1c-4,0-7.2,3.2-7.2,7.2s3.2,7.2,7.2,7.2,7.2-3.2,7.2-7.2-3.2-7.2-7.2-7.2h0Z"
         id="path6" />
    </g>
    <g
       id="g8">
      <path
         class="st3"
         d="M37.6,112.1c-2.9,0-5.2-2.3-5.2-5.2s2.3-5.2,5.2-5.2,5.2,2.3,5.2,5.2-2.3,5.2-5.2,5.2Z"
         id="path7" />
      <path
         class="st4"
         d="M37.6,103.7c1.8,0,3.2,1.4,3.2,3.2s-1.4,3.2-3.2,3.2-3.2-1.4-3.2-3.2,1.4-3.2,3.2-3.2M37.6,99.7c-4,0-7.2,3.2-7.2,7.2s3.2,7.2,7.2,7.2,7.2-3.2,7.2-7.2-3.2-7.2-7.2-7.2h0Z"
         id="path8" />
    </g>
    <g
       id="g9">
      <rect
         class="st4"
         x="37.6"
         y="80.5"
         width="76.8"
         height="9.6"
         id="rect8" />
      <polygon
         class="st4"
         points="114.4 80.5 37.6 80.5 37.6 90.1 114.4 90.1 114.4 80.5 114.4 80.5"
         id="polygon8" />
    </g>
    <g
       id="g10">
      <rect
         class="st4"
         x="54.4"
         y="102.1"
         width="51.4"
         height="9.6"
         id="rect9" />
      <polygon
         class="st4"
         points="105.8 102.1 54.4 102.1 54.4 111.7 105.8 111.7 105.8 102.1 105.8 102.1"
         id="polygon9" />
    </g>
  </g>
  <g
     class="st6"
     id="g12">
    <polygon
       class="st5"
       points="62.2 5.6 45.6 5.6 45.6 17.6 62.2 17.6 62.2 5.6 62.2 5.6"
       id="polygon11" />
  </g>
  <g
     class="st6"
     id="g13">
    <polygon
       class="st5"
       points="66 109.8 49.4 109.8 49.4 121.8 66 121.8 66 109.8 66 109.8"
       id="polygon12" />
  </g>
  <g
     class="st6"
     id="g14">
    <polygon
       class="st5"
       points="66 77.3 49.4 77.3 49.4 89.3 66 89.3 66 77.3 66 77.3"
       id="polygon13" />
  </g>
  <g
     class="st6"
     id="g18">
    <g
       id="g17">
      <line
         class="st0"
         x1="42"
         y1="87.9"
         x2="106"
         y2="87.9"
         id="line14" />
      <g
         id="g15">
        <circle
           class="st4"
           cx="28"
           cy="87.9"
           r="4"
           id="circle14" />
        <path
           class="st4"
           d="M28,85.9c1.1,0,2,.9,2,2s-.9,2-2,2-2-.9-2-2,.9-2,2-2M28,81.9c-3.3,0-6,2.7-6,6s2.7,6,6,6,6-2.7,6-6-2.7-6-6-6h0Z"
           id="path14" />
      </g>
      <line
         class="st0"
         x1="56"
         y1="105.9"
         x2="106"
         y2="105.9"
         id="line15" />
      <g
         id="g16">
        <circle
           class="st4"
           cx="42"
           cy="105.9"
           r="4"
           id="circle15" />
        <path
           class="st4"
           d="M42,103.9c1.1,0,2,.9,2,2s-.9,2-2,2-2-.9-2-2,.9-2,2-2M42,99.9c-3.3,0-6,2.7-6,6s2.7,6,6,6,6-2.7,6-6-2.7-6-6-6h0Z"
           id="path15" />
      </g>
    </g>
    <path
       class="st2"
       d="M90,43.9c.8,5.9-8.2,6.4-8.4,11.9-.4,3-.3,6.7-.3,9.8,0,3.3.7,7.4-3.5,8.5-2.8.7-5.6-1.5-5.6-4.4,0-2.8.7-6.3-2.6-7.5-.2-.1-.5-.1-.8-.2-.1,0-.2,0-.3,0-2.1-.1-4,1.6-4.1,3.7,0,0,0,3.7,0,3.9,0,4.4,0,13.6,0,18.3h0c-.4,5.3-8.2,5.3-8.6,0,0,0,0-.2,0-.3v-14c0-3.7-5.6-3.7-5.7,0,0,2.2-1.8,4-4,4-2.2,0-4-1.8-4-4V16.2l46.3,26.7,1.7,1Z"
       id="path17" />
  </g>
  <path
     class="st2"
     d="M 87.995039,62.222097 C 87.77069,66.139233 87.7,71.1 87.7,75.3 c 0,4.5 1,9.9 -4.7,11.4 -3.7,0.9 -7.5,-2 -7.4,-5.9 -0.1,-3.7 0.944757,-8.377903 -3.555243,-9.977903 -0.3,-0.1 -0.932019,-0.222097 -1.519844,-0.222097 H 70.5 c -3.374524,0.03258 -5.3,2.1 -5.5,5 v 5.2 24.3 0 c -0.6,7 -10.9,7 -11.5,0 V 104.7 86 c 0,-5 -7.5,-5 -7.6,0 0,2.9 -2.4,5.3 -5.3,5.3 -2.9,0 -5.3,-2.4 -5.3,-5.3 V 18.6 c 0,-2.9 2.4,-5.3 5.3,-5.3 1.251765,0 1.8,0.2 2.5,0.6 l 48.1,27.8 c 0,0 0.115629,0.0664 0.192188,0.111719 C 92.892188,42.711719 93.9,44.3 93.9,46.1 v 0.2 c 0,-0.107031 0,0 0,0 0.01563,7.725 -5.6,8.7 -5.9,15.8 z"
     id="path18"
     sodipodi:nodetypes="cscccsccccsccscsssscccssccc" />
</svg>
