<?xml version="1.0" encoding="UTF-8" standalone="no"?>
<svg
   id="Layer_1"
   version="1.1"
   viewBox="0 0 128 128"
   sodipodi:docname="icon.svg"
   inkscape:version="1.4 (86a8ad7, 2024-10-11)"
   inkscape:export-filename="icon-128.png"
   inkscape:export-xdpi="96"
   inkscape:export-ydpi="96"
   xmlns:inkscape="http://www.inkscape.org/namespaces/inkscape"
   xmlns:sodipodi="http://sodipodi.sourceforge.net/DTD/sodipodi-0.dtd"
   xmlns="http://www.w3.org/2000/svg"
   xmlns:svg="http://www.w3.org/2000/svg">
  <sodipodi:namedview
     id="namedview18"
     pagecolor="#505050"
     bordercolor="#eeeeee"
     borderopacity="1"
     inkscape:showpageshadow="0"
     inkscape:pageopacity="0"
     inkscape:pagecheckerboard="0"
     inkscape:deskcolor="#505050"
     inkscape:zoom="4"
     inkscape:cx="39.25"
     inkscape:cy="76.625"
     inkscape:window-width="2560"
     inkscape:window-height="1361"
     inkscape:window-x="-9"
     inkscape:window-y="-9"
     inkscape:window-maximized="1"
     inkscape:current-layer="Layer_1" />
  <defs
     id="defs1">
    <inkscape:path-effect
       effect="fillet_chamfer"
       id="path-effect3"
       is_visible="true"
       lpeversion="1"
       nodesatellites_param="F,0,0,1,0,0,0,1 @ F,0,0,1,0,0,0,1 @ F,0,0,1,0,0,0,1 @ F,0,0,1,0,0,0,1 @ F,0,0,1,0,0,0,1 @ F,0,0,1,0,0,0,1"
       radius="0"
       unit="px"
       method="auto"
       mode="F"
       chamfer_steps="1"
       flexible="false"
       use_knot_distance="true"
       apply_no_radius="true"
       apply_with_radius="true"
       only_selected="false"
       hide_knots="false" />
    <style
       id="style1">
      .st0 {
        fill: none;
        stroke: #e6db74;
        stroke-miterlimit: 10;
        stroke-width: 8px;
      }

      .st1 {
        fill: #263238;
      }

      .st2 {
        fill: #9dff00;
      }

      .st3 {
        fill-rule: evenodd;
      }

      .st3, .st4 {
        fill: #e6db74;
      }

      .st5 {
        fill: #c1272d;
      }

      .st6 {
        display: none;
      }
    </style>
  </defs>
  <g
     id="g1"
     style="stroke:#9dff00;stroke-width:6;stroke-linecap:round;stroke-linejoin:bevel;stroke-dasharray:none;stroke-opacity:1;paint-order:markers fill stroke"
     transform="matrix(0.95522427,0,0,0.95522291,2.8655957,2.865742)">
    <rect
       class="st1"
       x="0"
       y="0"
       width="128"
       height="128"
       rx="29.405405"
       ry="29.405405"
       id="rect1"
       style="display:inline;stroke:#9dff00;stroke-width:6;stroke-linecap:round;stroke-linejoin:bevel;stroke-dasharray:none;stroke-opacity:1;paint-order:markers fill stroke" />
    <path
       class="st2"
       d="m 96,9.5 c 12.4,0 22.4,10 22.4,22.4 v 64 c 0,12.4 -10,22.4 -22.4,22.4 H 32 c -12.4,0 -22.4,-10 -22.4,-22.4 v -64 C 9.6,19.5 19.6,9.5 32,9.5 h 64 m 0,-9.6 H 32 c -17.7,0 -32,14.3 -32,32 v 64 c 0,17.6 14.3,32 32,32 h 64 c 17.7,0 32,-14.3 32,-32 v -64 c 0,-17.7 -14.3,-32 -32,-32 z"
       id="path1"
       style="display:none;stroke:#9dff00;stroke-width:6;stroke-linecap:round;stroke-linejoin:bevel;stroke-dasharray:none;stroke-opacity:1;paint-order:markers fill stroke" />
  </g>
  <g
     class="st6"
     id="g4">
    <g
       id="o1"
       class="st6">
      <path
         class="st2"
         d="M89.8,45.1c-.5,1-4.1,2.7-5.1,3.3-1.5.9-3.8,2-4.2,3.9-.7,5.9.7,13.1,0,18.8-.4,2.9-3.9,4.1-6.2,2.5-3.4-2.3-.3-7.8-2.5-10.8-1.9-2.5-5.9-2.2-7.4.4-1.6,2.7-.2,12.3-.7,16-.3,2.5-3,2.2-3.8,4.3-.8,2.3.8,6.3-1.4,7.8-1.9,1.3-4.4,0-4.7-2.2-.4-3.2.7-13.1-.4-15.3-1.5-2.9-6-2.8-7.6,0-.7,1.2-.3,2.7-.8,3.5-.6.9-2.1.9-2.5,0s-.3-.8-.3-5.7V16.1l46.3,26.7,1.7,1h0c0,.8,0,.8-.2,1.2Z"
         id="path3" />
    </g>
    <g
       id="o2"
       class="st6">
      <path
         class="st2"
         d="M89.8,45.1c-.5,1-4.1,2.7-5.1,3.3-1.5.9-3.8,2-4.2,3.9-.7,5.9.7,13.1,0,18.8-.4,2.9-3.9,4.1-6.2,2.5-3.4-2.3-.3-7.8-2.5-10.8-1.9-2.5-5.9-2.2-7.4.4-1.6,2.7-.2,12.3-.7,16-.3,2.5-3,2.2-3.8,4.3-.8,2.3.8,6.3-1.4,7.8-1.9,1.3-4.4,0-4.7-2.2-.4-3.2.7-13.1-.4-15.3-1.5-2.9-6-2.8-7.6,0-.7,1.2-.3,2.7-.8,3.5-.6.9-2.1.9-2.5,0s-.3-.8-.3-5.7V16.1l46.3,26.7,1.7,1h0c0,.8,0,.8-.2,1.2Z"
         id="path4" />
    </g>
  </g>
  <g
     id="g11"
     transform="translate(2,-1.8)">
    <g
       id="g6">
      <path
         class="st3"
         d="m 20.8,90.5 c -2.9,0 -5.2,-2.3 -5.2,-5.2 0,-2.9 2.3,-5.2 5.2,-5.2 2.9,0 5.2,2.3 5.2,5.2 0,2.9 -2.3,5.2 -5.2,5.2 z"
         id="path5" />
      <path
         class="st4"
         d="m 20.8,82.1 c 1.8,0 3.2,1.4 3.2,3.2 0,1.8 -1.4,3.2 -3.2,3.2 -1.8,0 -3.2,-1.4 -3.2,-3.2 0,-1.8 1.4,-3.2 3.2,-3.2 m 0,-4 c -4,0 -7.2,3.2 -7.2,7.2 0,4 3.2,7.2 7.2,7.2 4,0 7.2,-3.2 7.2,-7.2 0,-4 -3.2,-7.2 -7.2,-7.2 z"
         id="path6" />
    </g>
    <g
       id="g8">
      <path
         class="st3"
         d="m 37.6,112.1 c -2.9,0 -5.2,-2.3 -5.2,-5.2 0,-2.9 2.3,-5.2 5.2,-5.2 2.9,0 5.2,2.3 5.2,5.2 0,2.9 -2.3,5.2 -5.2,5.2 z"
         id="path7" />
      <path
         class="st4"
         d="m 37.6,103.7 c 1.8,0 3.2,1.4 3.2,3.2 0,1.8 -1.4,3.2 -3.2,3.2 -1.8,0 -3.2,-1.4 -3.2,-3.2 0,-1.8 1.4,-3.2 3.2,-3.2 m 0,-4 c -4,0 -7.2,3.2 -7.2,7.2 0,4 3.2,7.2 7.2,7.2 4,0 7.2,-3.2 7.2,-7.2 0,-4 -3.2,-7.2 -7.2,-7.2 z"
         id="path8" />
    </g>
    <g
       id="g9"
       transform="matrix(0.94812012,0,0,1,1.9506834,0)">
      <path
         class="st4"
         x="37.599998"
         y="80.5"
         width="76.800003"
         height="9.6000004"
         id="rect8"
         style="display:inline"
         inkscape:path-effect="#path-effect3"
         sodipodi:type="rect"
         d="M 42.399999,80.5 H 109.6 c 2.6592,0 4.8,2.1408 4.8,4.8 0,2.6592 -2.1408,4.8 -4.8,4.8 H 42.399999 c -2.6592,0 -4.800001,-2.1408 -4.800001,-4.8 0,-2.6592 2.140801,-4.8 4.800001,-4.8 z"
         ry="4.8000002" />
      <polygon
         class="st4"
         points="114.4,80.5 37.6,80.5 37.6,90.1 114.4,90.1 "
         id="polygon8"
         style="display:none" />
    </g>
    <g
       id="g10"
       transform="matrix(0.94389743,0,0,1,3.051977,0)">
      <rect
         class="st4"
         x="54.400002"
         y="102.1"
         width="51.400002"
         height="9.6000004"
         id="rect9"
         ry="4.8000002" />
      <polygon
         class="st4"
         points="54.4,102.1 54.4,111.7 105.8,111.7 105.8,102.1 "
         id="polygon9"
         style="display:none" />
    </g>
  </g>
  <g
     class="st6"
     id="g12">
    <polygon
       class="st5"
       points="62.2 5.6 45.6 5.6 45.6 17.6 62.2 17.6 62.2 5.6 62.2 5.6"
       id="polygon11" />
  </g>
  <g
     class="st6"
     id="g13">
    <polygon
       class="st5"
       points="66 109.8 49.4 109.8 49.4 121.8 66 121.8 66 109.8 66 109.8"
       id="polygon12" />
  </g>
  <g
     class="st6"
     id="g14">
    <polygon
       class="st5"
       points="66 77.3 49.4 77.3 49.4 89.3 66 89.3 66 77.3 66 77.3"
       id="polygon13" />
  </g>
  <g
     class="st6"
     id="g18">
    <g
       id="g17">
      <line
         class="st0"
         x1="42"
         y1="87.9"
         x2="106"
         y2="87.9"
         id="line14" />
      <g
         id="g15">
        <circle
           class="st4"
           cx="28"
           cy="87.9"
           r="4"
           id="circle14" />
        <path
           class="st4"
           d="M28,85.9c1.1,0,2,.9,2,2s-.9,2-2,2-2-.9-2-2,.9-2,2-2M28,81.9c-3.3,0-6,2.7-6,6s2.7,6,6,6,6-2.7,6-6-2.7-6-6-6h0Z"
           id="path14" />
      </g>
      <line
         class="st0"
         x1="56"
         y1="105.9"
         x2="106"
         y2="105.9"
         id="line15" />
      <g
         id="g16">
        <circle
           class="st4"
           cx="42"
           cy="105.9"
           r="4"
           id="circle15" />
        <path
           class="st4"
           d="M42,103.9c1.1,0,2,.9,2,2s-.9,2-2,2-2-.9-2-2,.9-2,2-2M42,99.9c-3.3,0-6,2.7-6,6s2.7,6,6,6,6-2.7,6-6-2.7-6-6-6h0Z"
           id="path15" />
      </g>
    </g>
    <path
       class="st2"
       d="M90,43.9c.8,5.9-8.2,6.4-8.4,11.9-.4,3-.3,6.7-.3,9.8,0,3.3.7,7.4-3.5,8.5-2.8.7-5.6-1.5-5.6-4.4,0-2.8.7-6.3-2.6-7.5-.2-.1-.5-.1-.8-.2-.1,0-.2,0-.3,0-2.1-.1-4,1.6-4.1,3.7,0,0,0,3.7,0,3.9,0,4.4,0,13.6,0,18.3h0c-.4,5.3-8.2,5.3-8.6,0,0,0,0-.2,0-.3v-14c0-3.7-5.6-3.7-5.7,0,0,2.2-1.8,4-4,4-2.2,0-4-1.8-4-4V16.2l46.3,26.7,1.7,1Z"
       id="path17" />
  </g>
  <path
     class="st2"
     d="M 90.795039,64.397097 C 90.57069,68.314233 90.5,73.275 90.5,77.475 c 0,4.5 1,9.9 -4.7,11.4 -3.7,0.9 -7.5,-2 -7.4,-5.9 -0.1,-3.7 0.944757,-8.377903 -3.555243,-9.977903 -0.3,-0.1 -0.932019,-0.222097 -1.519844,-0.222097 H 73.3 c -3.374524,0.03258 -5.3,2.1 -5.5,5 v 5.2 24.3 0 c -0.6,7 -10.9,7 -11.5,0 v -0.4 -18.7 c 0,-5 -7.5,-5 -7.6,0 0,2.9 -2.4,5.3 -5.3,5.3 -2.9,0 -5.3,-2.4 -5.3,-5.3 v -67.4 c 0,-2.9 2.4,-5.3 5.3,-5.3 1.251765,0 1.8,0.2 2.5,0.6 l 48.1,27.8 c 0,0 0.115629,0.0664 0.192188,0.111719 1.5,0.9 2.507812,2.488281 2.507812,4.288281 v 0.2 c 0,-0.107031 0,0 0,0 0.01563,7.725 -5.6,8.7 -5.9,15.8 z"
     id="path18"
     sodipodi:nodetypes="cscccsccccsccscsssscccssccc"
     style="display:inline" />
  <rect
     style="display:none;opacity:0.516026;fill:#5bfefd;stroke-width:1.03203"
     id="rect2"
     width="8.7176657"
     height="5.9713449"
     x="-45.818703"
     y="182.02165"
     transform="rotate(-90.2673)" />
  <rect
     style="display:none;opacity:0.516026;fill:#5bfefd"
     id="rect3"
     width="25.698912"
     height="8.5515728"
     x="199.69472"
     y="43.442444" />
  <rect
     style="display:none;opacity:0.516026;fill:#5bfefd;stroke:none;stroke-width:17.4327;stroke-linecap:round;stroke-linejoin:miter;stroke-dasharray:none;stroke-opacity:1;paint-order:markers fill stroke"
     id="rect4"
     width="9.8553009"
     height="11.346854"
     x="173.36649"
     y="-139.7496"
     transform="rotate(54.729722)" />
</svg>
